<svg xmlns="http://www.w3.org/2000/svg" fill="none" stroke="black" stroke-width="0.5" viewBox="0 0 25 25">
<path d="M  2  2 H  9 V  9 H  2 V  2 Z" fill="grey"></path>
<path d="M  9  2 H 16 V  9 H  9 V  2 Z" fill="grey"></path>
<path d="M 16  2 H 23 V  9 H 16 V  2 Z" fill="white"></path>
<path d="M  2  9 H  9 V 16 H  2 V  9 Z" fill="white"></path>
<path d="M  9  9 H 16 V 16 H  9 V  9 Z" fill="white"></path>
<path d="M  2 16 H  9 V 23 H  2 V 16 Z" fill="white"></path>
<path d="M 16  9 H 23 V 16 H 16 V  9 Z" fill="white"></path>
<path d="M  9 16 H 16 V 23 H  9 V 16 Z" fill="grey"></path>
<path d="M 16 16 H 23 V 23 H 16 V 16 Z" fill="grey"></path>
<path d="M  1  1 H 24 V 24 H  1 V  1 Z" stroke="white" stroke-width="2.5" stroke-linecap="round" stroke-linejoin="round"></path>
</svg>