<svg xmlns="http://www.w3.org/2000/svg" fill="lightgrey" viewBox="0 0 24 24">
<path fill-rule="evenodd" d="m 17.148622,13.710154 a 6.9963584,7.8935778 0 0 1 6.665349,7.757775 v 1.069452 a 1.2036746,1.3580349 0 0 1 -1.203675,1.358035 h -2.091385 a 2.708268,3.0555785 0 0 0 0.285873,-1.273159 v -1.171304 c -0.04515,-3.225334 -1.489548,-6.026279 -3.656162,-7.740799 z m -4.844791,0 c 3.821667,0 6.921128,3.462989 6.996359,7.757775 v 1.069452 a 1.2036746,1.3580349 0 0 1 -1.203676,1.358035 H 1.3955311 A 1.2036746,1.3580349 0 0 1 0.19185614,22.537381 V 21.603733 A 6.9963584,7.8935778 0 0 1 7.1882144,13.710154 Z M 14.289896,0.12980592 a 5.2676294,5.9431549 0 1 1 -0.255784,11.88280508 6.77067,7.6389462 0 0 0 0,-11.88280508 z m -4.5137812,0 a 5.2660769,5.941403 0 1 1 0,11.88280508 5.2660769,5.941403 0 0 1 0,-11.88280508 z"/>
</svg>
